<?xml version="1.0"?>
<svg xmlns="http://www.w3.org/2000/svg" height="512px" viewBox="0 -36 512 511" width="512px" class=""><g><path d="m512 19.1875v401.734375c0 10.3125-8.390625 18.691406-18.699219 18.691406h-474.613281c-10.308594 0-18.6875-8.378906-18.6875-18.691406v-401.734375c0-10.308594 8.378906-18.6875 18.6875-18.6875h474.613281c10.308594 0 18.699219 8.378906 18.699219 18.6875zm0 0" fill="#76c8ff" data-original="#76C8FF" class="" data-old_color="#76c8ff" style="fill:#FFFFFF"/><path d="m512 19.1875v401.734375c0 10.3125-8.390625 18.691406-18.699219 18.691406h-237.289062v-439.113281h237.289062c10.308594 0 18.699219 8.378906 18.699219 18.6875zm0 0" fill="#279eff" data-original="#279EFF" class="" data-old_color="#279eff" style="fill:#EFEFEF"/><path d="m512 267.898438v153.023437c0 10.3125-8.390625 18.691406-18.699219 18.691406h-474.613281c-10.308594 0-18.6875-8.378906-18.6875-18.691406v-104.824219h30l94.34375-94.335937c2.960938-2.96875 6.921875-4.621094 11.140625-4.621094h.011719c4.21875 0 8.179687 1.640625 11.15625 4.621094l85.25 85.246093 24.109375-24.109374 109.335937-109.34375c6.148438-6.140626 16.15625-6.140626 22.296875 0l94.355469 94.34375zm0 0" fill="#e5e023" data-original="#E5E023" class="" data-old_color="#e5e023" style="fill:#5C657C"/><path d="m283.050781 147.464844c0 19.5-10.960937 36.46875-27.039062 45.097656-7.191407 3.859375-15.402344 6.050781-24.109375 6.050781-28.210938 0-51.148438-22.941406-51.148438-51.148437 0-28.210938 22.9375-51.148438 51.148438-51.148438 8.707031 0 16.917968 2.191406 24.109375 6.050782 16.078125 8.628906 27.039062 25.597656 27.039062 45.097656zm0 0" fill="#ffe8cc" data-original="#FFE8CC" class="" data-old_color="#ffe8cc" style="fill:#FF6A3D"/><path d="m256.011719 192.5625v-90.195312c16.078125 8.628906 27.039062 25.597656 27.039062 45.097656s-10.960937 36.46875-27.039062 45.097656zm0 0" fill="#f9cea0" data-original="#F9CEA0" class="" data-old_color="#f9cea0" style="fill:#D45E3B"/><path d="m512 267.898438v153.023437c0 10.3125-8.390625 18.691406-18.699219 18.691406h-237.289062v-156.714843l109.335937-109.34375c6.148438-6.140626 16.15625-6.140626 22.296875 0l94.355469 94.34375zm0 0" fill="#bcb200" data-original="#BCB200" class="active-path" data-old_color="#bcb200" style="fill:#373D4B"/></g> </svg>
